HIERARCHY
ROOT Hips
{
	OFFSET 0.000000 0.000000 0.000000
	CHANNELS 6 Xposition Yposition Zposition Yrotation Xrotation Zrotation
	JOINT Chest
	{
		OFFSET 0.000000 -0.009281 11.569106
		CHANNELS 3 Yrotation Xrotation Zrotation
		JOINT Chest2
		{
			OFFSET -0.000000 0.016865 9.269641
			CHANNELS 3 Yrotation Xrotation Zrotation
			JOINT Chest3
			{
				OFFSET -0.000000 0.000001 8.374491
				CHANNELS 3 Yrotation Xrotation Zrotation
				JOINT Chest4
				{
					OFFSET -0.000000 0.000001 8.374493
					CHANNELS 3 Yrotation Xrotation Zrotation
					JOINT Neck
					{
						OFFSET -0.000000 0.000002 12.152554
						CHANNELS 3 Yrotation Xrotation Zrotation
						JOINT Head
						{
							OFFSET -0.000000 0.040101 7.802319
							CHANNELS 3 Yrotation Xrotation Zrotation
							End Site
							{
								OFFSET -0.000000 0.020947 14.853096
							}
						}
					}
					JOINT RightCollar
					{
						OFFSET 2.894404 0.000001 6.791374
						CHANNELS 3 Yrotation Xrotation Zrotation
						JOINT RightShoulder
						{
							OFFSET 13.574684 0.000001 0.000000
							CHANNELS 3 Yrotation Xrotation Zrotation
							JOINT RightElbow
							{
								OFFSET 23.923903 0.000002 0.000000
								CHANNELS 3 Yrotation Xrotation Zrotation
								JOINT RightWrist
								{
									OFFSET 19.846718 0.012767 0.000000
									CHANNELS 3 Yrotation Xrotation Zrotation
									End Site
									{
										OFFSET 14.973145 0.000001 0.000000
									}
								}
							}
						}
					}
					JOINT LeftCollar
					{
						OFFSET -2.894404 0.000001 6.791374
						CHANNELS 3 Yrotation Xrotation Zrotation
						JOINT LeftShoulder
						{
							OFFSET -13.574684 -0.000001 0.000000
							CHANNELS 3 Yrotation Xrotation Zrotation
							JOINT LeftElbow
							{
								OFFSET -23.923903 -0.000002 0.000000
								CHANNELS 3 Yrotation Xrotation Zrotation
								JOINT LeftWrist
								{
									OFFSET -19.846718 0.012763 0.000000
									CHANNELS 3 Yrotation Xrotation Zrotation
									End Site
									{
										OFFSET -14.973145 -0.000001 0.000000
									}
								}
							}
						}
					}
				}
			}
		}
	}
	JOINT RightHip
	{
		OFFSET 9.469263 0.004643 0.045487
		CHANNELS 3 Yrotation Xrotation Zrotation
		JOINT RightKnee
		{
			OFFSET 0.000000 0.002661 -40.478676
			CHANNELS 3 Yrotation Xrotation Zrotation
			JOINT RightAnkle
			{
				OFFSET 0.000000 0.049106 -35.224068
				CHANNELS 3 Yrotation Xrotation Zrotation
				JOINT RightToe
				{
					OFFSET -0.000001 12.539529 -6.151390
					CHANNELS 3 Yrotation Xrotation Zrotation
					End Site
					{
						OFFSET -0.000001 5.044994 -1.291870
					}
				}
			}
		}
	}
	JOINT LeftHip
	{
		OFFSET -9.469263 0.004641 0.045487
		CHANNELS 3 Yrotation Xrotation Zrotation
		JOINT LeftKnee
		{
			OFFSET 0.000000 0.002661 -40.478676
			CHANNELS 3 Yrotation Xrotation Zrotation
			JOINT LeftAnkle
			{
				OFFSET 0.000000 0.049106 -35.224068
				CHANNELS 3 Yrotation Xrotation Zrotation
				JOINT LeftToe
				{
					OFFSET -0.000001 12.539529 -6.151390
					CHANNELS 3 Yrotation Xrotation Zrotation
					End Site
					{
						OFFSET -0.000001 5.044994 -1.291870
					}
				}
			}
		}
	}
}
MOTION
Frames: 11
Frame Time: 0.016667
17.909945 8.532321 82.436272 -7.201715 1.790437 -100.124119 0.523254 -6.279613 11.863327 0.449674 -2.798057 5.208572 0.449674 -2.798057 5.208573 0.361084 -2.094892 3.907717 7.366629 -17.654449 -5.890152 11.583303 3.537597 -8.360484 7.476775 -1.981307 -12.015096 66.901382 -6.347690 65.810471 8.252865 -6.531823 31.768736 -53.151320 35.544301 42.215156 -0.303492 -8.143347 -27.302786 -69.152913 13.225414 -48.769111 -2.784422 19.925485 -18.332424 63.051990 20.651074 -60.666655 -11.298206 -1.447265 -5.309933 6.054245 -23.309470 -7.473181 -2.821891 12.850635 -2.625323 0.541129 0.448753 -0.018422 -5.735919 -6.687065 -2.736207 -0.697324 -7.316692 -1.298205 1.493673 6.434208 2.519046 -0.430788 -0.261267 0.014679 
18.015255 8.683625 82.355438 -7.283052 1.865298 -100.252895 0.478522 -6.283328 11.888189 0.423309 -2.796646 5.219492 0.423309 -2.796647 5.219493 0.341351 -2.094051 3.915781 7.348559 -17.654951 -5.916645 11.540961 3.537742 -8.415419 7.486122 -2.079101 -11.956610 66.945703 -6.792983 65.761833 8.475614 -5.859371 31.005251 -53.438895 35.997447 42.230670 -0.277756 -8.279367 -27.385840 -69.204330 12.455116 -48.617877 -2.437695 20.068291 -17.170237 63.045651 20.907491 -60.099695 -11.532391 -1.080035 -5.165108 6.071292 -24.250868 -7.608440 -2.848146 13.214590 -2.597700 0.607274 0.483847 0.015720 -5.956927 -6.525387 -2.970606 -0.826543 -7.938875 -1.160698 1.875438 6.831552 2.752328 -0.468644 -0.248739 0.005909 
18.135349 8.826385 82.275963 -7.382692 1.941820 -100.374520 0.413306 -6.308268 11.915119 0.389550 -2.800813 5.236097 0.389549 -2.800812 5.236096 0.316146 -2.097456 3.928078 7.347362 -17.651951 -5.950480 11.527181 3.544746 -8.478009 7.507019 -2.131922 -11.943691 66.993876 -7.262719 65.770241 8.735810 -5.212509 30.192551 -53.665787 36.388987 42.162888 -0.213710 -8.333666 -27.498808 -69.295179 11.573085 -48.422957 -2.165753 20.456118 -16.175023 63.026595 21.187920 -59.432167 -11.745974 -0.755923 -4.972316 6.067060 -25.160863 -7.763571 -2.871158 13.574805 -2.582995 0.673028 0.511886 0.045663 -6.171825 -6.369889 -3.249401 -0.980229 -8.604151 -1.019661 2.267674 7.236200 2.989712 -0.501432 -0.223368 -0.005366 
18.252844 8.960265 82.196999 -7.476787 1.995708 -100.509669 0.371080 -6.302162 11.947470 0.364950 -2.799141 5.250011 0.364949 -2.799141 5.250011 0.297748 -2.096406 3.938397 7.342687 -17.673447 -5.985850 11.506797 3.506388 -8.545735 7.508222 -2.155744 -11.930642 67.046605 -7.762821 65.756519 8.974397 -4.601009 29.357598 -53.738289 36.615664 42.077766 -0.137026 -8.478308 -27.613557 -69.446604 10.621859 -48.284417 -2.052469 21.277124 -15.392678 63.178164 21.501669 -58.761907 -11.921156 -0.440622 -4.722713 6.076517 -26.021562 -7.891469 -2.930888 13.889489 -2.647265 0.737971 0.544296 0.074897 -6.374155 -6.179371 -3.585691 -1.133714 -9.333744 -0.773269 2.658388 7.663411 3.222526 -0.538006 -0.195725 -0.015630 
18.356401 9.084823 82.118958 -7.572272 2.016811 -100.649039 0.368713 -6.265426 11.968946 0.357690 -2.787544 5.257484 0.357690 -2.787544 5.257484 0.292238 -2.087766 3.943971 7.325464 -17.723673 -6.021515 11.463632 3.414744 -8.619558 7.474022 -2.240888 -11.868762 67.074315 -8.241494 65.723687 9.206508 -4.026200 28.583602 -53.677449 36.749782 42.020328 -0.116411 -8.719553 -27.679714 -69.596131 9.658308 -48.249167 -2.017320 22.211309 -14.668099 63.406757 21.803548 -57.976039 -12.042061 -0.142332 -4.485583 6.056144 -26.835070 -7.923542 -3.006952 14.164120 -2.796325 0.790328 0.571037 0.104298 -6.573171 -5.960898 -3.988361 -1.238910 -10.119817 -0.458966 3.029809 8.099742 3.461626 -0.586448 -0.165917 -0.024731 
18.451607 9.206119 82.042397 -7.674034 2.020698 -100.786831 0.365186 -6.231206 12.002845 0.356134 -2.774759 5.269628 0.356134 -2.774759 5.269630 0.291017 -2.078183 3.953067 7.319939 -17.772359 -6.069578 11.437864 3.326498 -8.712134 7.437117 -2.357579 -11.818040 67.064555 -8.686873 65.711734 9.338767 -3.507345 27.885567 -53.628279 36.887393 41.926061 -0.130368 -8.918636 -27.736956 -69.716533 8.750857 -48.300851 -1.907479 22.808841 -13.745674 63.600215 22.106527 -56.949168 -12.139072 0.114903 -4.310009 5.997720 -27.581258 -7.856742 -3.099438 14.399943 -2.967646 0.840431 0.591747 0.147329 -6.770743 -5.719429 -4.434706 -1.339512 -10.964012 -0.172129 3.429080 8.563945 3.775702 -0.647923 -0.155557 -0.039810 
18.545071 9.322164 81.970139 -7.793211 1.993262 -100.897071 0.360396 -6.237308 12.048490 0.351408 -2.773120 5.296793 0.351408 -2.773120 5.296794 0.287582 -2.076981 3.973417 7.340283 -17.791188 -6.142089 11.451059 3.294676 -8.839608 7.427077 -2.407427 -11.810192 67.017078 -9.120128 65.710682 9.447986 -2.974897 27.195249 -53.625239 36.981445 41.846356 -0.137282 -8.973156 -27.848633 -69.813105 7.854205 -48.332229 -1.705054 23.116826 -12.694004 63.661051 22.309339 -55.914831 -12.202956 0.299598 -4.200190 5.921468 -28.243666 -7.714540 -3.196278 14.612083 -3.143130 0.869656 0.592373 0.175496 -6.964054 -5.510041 -4.923753 -1.393599 -11.785106 0.054177 3.826442 8.950129 4.139578 -0.718014 -0.108042 -0.059052 
18.648766 9.430237 81.904236 -7.926025 1.946640 -101.004230 0.362484 -6.262189 12.108159 0.350932 -2.774605 5.333636 0.350931 -2.774604 5.333634 0.287405 -2.078080 4.001039 7.370134 -17.803597 -6.229964 11.476478 3.275422 -8.991849 7.432119 -2.441078 -11.818579 66.940553 -9.527071 65.764634 9.616183 -2.395272 26.433966 -53.542857 37.021053 41.702529 -0.109537 -9.007865 -28.008555 -69.945064 6.844450 -48.299509 -1.382784 23.430713 -11.755088 63.723370 22.405425 -55.145093 -12.243290 0.424588 -4.090698 5.833840 -28.832626 -7.575161 -3.274321 14.795139 -3.286285 0.881888 0.592611 0.201224 -7.135229 -5.351591 -5.331990 -1.440177 -12.551333 0.256871 4.218052 9.293751 4.423138 -0.781958 -0.054769 -0.079470 
18.771709 9.526126 81.845451 -8.084617 1.937719 -101.105200 0.344121 -6.285327 12.126192 0.361746 -2.770134 5.359596 0.361746 -2.770134 5.359597 0.295594 -2.074618 4.020556 7.382659 -17.841711 -6.304142 11.475128 3.207849 -9.125848 7.404548 -2.471918 -11.780267 66.825553 -9.958795 65.807363 9.866370 -1.721813 25.629187 -53.359886 36.994053 41.508265 -0.093293 -9.116411 -28.154212 -70.035250 5.787501 -48.250184 -1.112594 23.797071 -10.980297 63.874249 22.518657 -54.374941 -12.348591 0.474710 -3.953585 5.757746 -29.353909 -7.486541 -3.237153 14.988625 -3.266540 0.817357 0.573014 0.106786 -7.345309 -5.253245 -5.584920 -1.461246 -13.252054 0.460948 4.552594 9.562923 4.652879 -0.811006 0.044406 -0.085673 
18.903679 9.594269 81.792854 -8.214817 1.899437 -101.244762 0.383668 -6.258586 12.137348 0.384933 -2.753319 5.368826 0.384932 -2.753319 5.368824 0.312879 -2.061797 4.027582 7.376545 -17.914459 -6.357809 11.447128 3.075110 -9.229844 7.294847 -2.581887 -11.726527 66.761500 -10.440159 65.857449 10.192229 -0.914542 24.874716 -53.061318 36.907696 41.246922 -0.117428 -9.315729 -28.254080 -70.038549 4.769729 -48.167409 -0.975820 23.996099 -10.337315 64.052353 22.654214 -53.259940 -12.391674 0.546794 -3.743253 5.717996 -29.847052 -7.510604 -3.239310 15.136432 -3.264165 0.777835 0.589019 0.097109 -7.482338 -5.139505 -5.689765 -1.481964 -13.956496 0.622936 4.831685 9.906161 4.781324 -0.812600 0.083394 -0.091353 
19.038366 9.643378 81.743279 -8.330908 1.852490 -101.377254 0.422792 -6.217630 12.159599 0.405417 -2.734001 5.381833 0.405417 -2.734001 5.381832 0.328129 -2.047120 4.037425 7.387119 -17.983222 -6.421086 11.446670 2.950245 -9.345683 7.186470 -2.713634 -11.688195 66.757893 -10.917787 65.891402 10.536494 -0.020859 24.213739 -52.757969 36.785517 40.980496 -0.115449 -9.495980 -28.367420 -69.902383 3.728061 -48.087144 -0.864764 24.052685 -9.679886 64.111161 22.758750 -51.906774 -12.408879 0.631556 -3.539078 5.704893 -30.354163 -7.594461 -3.244017 15.283364 -3.249996 0.733680 0.620128 0.099247 -7.577688 -5.046121 -5.779185 -1.537372 -14.603339 0.733944 5.105388 10.228374 4.903870 -0.796880 0.111710 -0.096401 
